<?xml version="1.0" ?><svg id="Layer_1" style="enable-background:new 0 0 32 32;" version="1.1" viewBox="0 0 32 32" xml:space="preserve" xmlns="http://www.w3.org/2000/svg" xmlns:xlink="http://www.w3.org/1999/xlink"><g><g><path d="M15.1914063,19.7490234c-0.2558594,0-0.5117188-0.0976563-0.7070313-0.2929688l-2.5009766-2.5009766    c-0.390625-0.390625-0.390625-1.0234375,0-1.4140625s1.0234375-0.390625,1.4140625,0l1.7939453,1.7939453l4.7919922-4.7910156    c0.390625-0.390625,1.0234375-0.390625,1.4140625,0s0.390625,1.0234375,0,1.4140625l-5.4990234,5.4980469    C15.703125,19.6513672,15.4472656,19.7490234,15.1914063,19.7490234z"/></g><g><path d="M16,29C8.831543,29,3,23.1679688,3,16S8.831543,3,16,3s13,5.8320313,13,13S23.168457,29,16,29z M16,5    C9.9345703,5,5,9.9345703,5,16s4.9345703,11,11,11s11-4.9345703,11-11S22.0654297,5,16,5z"/></g></g></svg>